HIERARCHY
ROOT Spine
{
    OFFSET 0.0 0.0 -0.0
    CHANNELS 6 Xposition Yposition Zposition Zrotation Xrotation Yrotation
    JOINT ShoulderCenter
    {
        OFFSET 0.0 0.23098309338092804 0.0
        CHANNELS 3 Zrotation Xrotation Yrotation
        JOINT LeftShoulder
        {
            OFFSET 0.16840095818042755 0.0 0.0
            CHANNELS 3 Zrotation Xrotation Yrotation
            JOINT LeftElbow
            {
                OFFSET 0.24740535020828247 0.0 0.0
                CHANNELS 3 Zrotation Xrotation Yrotation
                JOINT LeftHand
                {
                    OFFSET 0.28408199548721313 0.0 0.0
                    CHANNELS 3 Zrotation Xrotation Yrotation
                    End Site
                    {
                        OFFSET 0.11363278329372406 0.0 0.0
                    }
                }
            }
        }
        JOINT RightShoulder
        {
            OFFSET -0.16840095818042755 0.0 0.0
            CHANNELS 3 Zrotation Xrotation Yrotation
            JOINT RightElbow
            {
                OFFSET -0.24740535020828247 0.0 0.0
                CHANNELS 3 Zrotation Xrotation Yrotation
                JOINT RightHand
                {
                    OFFSET -0.28408199548721313 0.0 0.0
                    CHANNELS 3 Zrotation Xrotation Yrotation
                    End Site
                    {
                        OFFSET -0.11363278329372406 0.0 0.0
                    }
                }
            }
        }
        End Site
        {
            OFFSET 0.0 0.09239322692155838 0.0
        }
    }
    JOINT LeftHip
    {
        OFFSET 0.22030216722232224 -0.22030216722232224 0.0
        CHANNELS 3 Zrotation Xrotation Yrotation
        JOINT LeftKnee
        {
            OFFSET 0.0 -0.3443922698497772 0.0
            CHANNELS 3 Zrotation Xrotation Yrotation
            JOINT LeftFoot
            {
                OFFSET 0.0 -0.3858225345611572 0.0
                CHANNELS 3 Zrotation Xrotation Yrotation
                End Site
                {
                    OFFSET 0.0 0.0 0.15432904660701752
                }
            }
        }
    }
    JOINT RightHip
    {
        OFFSET -0.22030216722232224 -0.22030216722232224 0.0
        CHANNELS 3 Zrotation Xrotation Yrotation
        JOINT RightKnee
        {
            OFFSET 0.0 -0.3443922698497772 0.0
            CHANNELS 3 Zrotation Xrotation Yrotation
            JOINT RightFoot
            {
                OFFSET 0.0 -0.3858225345611572 0.0
                CHANNELS 3 Zrotation Xrotation Yrotation
                End Site
                {
                    OFFSET 0.0 0.0 0.15432904660701752
                }
            }
        }
    }
}
MOTION
Frames: 4
Frame Time: 0.03333333333333333
-0.44643789529800415 0.08981358259916306 2.9855360984802246 -4.264346424888001 -17.264344513160893 -158.78641102287733 -7.102694419555428e-08 -1.2089915101971273e-06 7.20446144163932 90.56195472756954 -38.11641970106379 -178.40238872717674 1.1984945247234376e-06 -3.03149585339679e-07 25.604019403055517 -6.3611093629270335e-15 -2.4848083448933725e-17 -1.3793457181406746e-33 -105.46735553931782 -50.869468114310905 -176.19865471429353 4.388220388770682e-06 2.1922789460236443e-06 -30.971892616781073 -6.3611093629270335e-15 -3.531125038440127e-31 6.3611093629270335e-15 -0.798557618486951 -4.936862691705122 -14.001189104986015 -4.361997545637538 -3.784385793159274 14.108326043670255 1.9878466759146985e-16 -1.7672867013677393e-33 -1.018771421406283e-15 -21.054547358769007 -1.442911336181703 110.82138711676846 0.8790142484323782 -32.536163854274356 -76.30816887899528 3.1805546814635168e-15 2.2069531490250793e-32 7.951386703658792e-16
-0.44705140590667725 0.08940917253494263 2.984189033508301 -4.3646851653125305 -17.088304532587895 -158.61083714432704 6.049919068113247e-07 1.8221361683029473e-06 6.953447498043456 90.8288756009432 -38.26923055253375 -178.5616710795758 2.6082444722092915e-06 3.5139000216354834e-06 25.16790252179464 -1.2722218725854065e-14 -9.939233379573489e-17 -1.1034765745125397e-32 -105.63685664586538 -50.90835988239566 -176.22858175831382 3.382896778178199e-06 -5.414577918614178e-07 -31.103979550796637 0.0 0.0 -3.1805546814635164e-15 -0.9094609456720051 -4.493874767856909 -15.808080008840905 -4.174193532989192 -4.036605819782637 14.96550837969159 -1.987846675914698e-16 -6.465683053784412e-34 3.7272125173400585e-16 -21.366350026990084 -2.0386304943006106 116.0240144280629 -0.8099031538680652 -33.70382036763 -80.50965780248463 3.1805546814635164e-15 1.3241718894150476e-31 4.770832022195274e-15
-0.4473469853401184 0.08911673724651337 2.9826459884643555 -4.379676086501407 -17.064837206436646 -158.29578311399885 5.554664812063029e-07 9.808623250729908e-07 6.770319828862526 91.01179805278153 -38.19681152732855 -178.56813969089538 8.602371943976115e-07 1.468125119664005e-06 25.08884119276756 -2.2069531490250793e-32 -1.5902773407317584e-15 -1.5902773407317584e-15 -105.73359124856977 -49.76737348354378 -176.00166845019376 -4.724331673043113e-06 7.55476178686488e-06 -32.08201977259084 -6.3611093629270335e-15 -6.3611093629270335e-15 3.1805546814635164e-15 -0.8920869242320203 -4.659064209460326 -14.402198493040633 -4.528257616629498 -3.384294510587605 12.392505558917431 -3.975693351829396e-16 -1.5902773407317582e-15 -2.758137262831643e-15 -21.304823081005175 -1.7076720385010897 114.10930381863076 0.21808643213800402 -33.57828846287863 -78.40341569232555 -1.5902773407317582e-15 -7.724336021587778e-32 5.5659706925611536e-15
-0.44770270586013794 0.08886615186929703 2.981961965560913 -4.384502233008721 -17.035252505364426 -158.139125545697 -3.450025059833949e-07 5.650687505864086e-07 6.69392211443143 91.1570606933301 -39.52161566327312 -178.64513895526426 1.3539188705237263e-06 1.6614824775465924e-06 25.8135054514524 -6.3611093629270335e-15 0.0 0.0 -105.64657455190542 -49.717897542835615 -175.83064831110343 6.915615695403384e-06 4.5285427798312944e-06 -32.053799462205404 0.0 0.0 -3.1805546814635168e-15 -0.8453524534057302 -4.590573509164849 -14.559035943030533 -4.620223705199745 -3.3988174960527098 12.418900992296775 1.987846675914698e-16 -5.129441889335634e-33 -2.9569219304231134e-15 -21.298448719890477 -1.561136228931052 113.76192297749593 0.41450223769139044 -33.533091947018846 -77.9047345509875 0.0 0.0 -2.3854160110976384e-15
